<?xml version="1.0" standalone="no"?>
<!DOCTYPE svg PUBLIC "-//W3C//DTD SVG 20010904//EN"
 "http://www.w3.org/TR/2001/REC-SVG-20010904/DTD/svg10.dtd">
<svg version="1.0" xmlns="http://www.w3.org/2000/svg"
 width="600.000000pt" height="600.000000pt" viewBox="0 0 600.000000 600.000000"
 preserveAspectRatio="xMidYMid meet">

<g transform="translate(0.000000,600.000000) scale(0.100000,-0.100000)"
fill="#000000" stroke="none">
<path d="M1945 4665 c-302 -57 -555 -280 -643 -566 -91 -295 -19 -604 191
-825 183 -194 432 -287 677 -256 105 14 207 38 245 59 108 58 132 73 150 93
17 19 14 19 -20 -5 -143 -97 -311 -142 -494 -132 -129 7 -199 25 -316 82 -162
78 -291 207 -370 370 -66 136 -79 196 -79 360 0 164 13 224 79 360 79 163 204
288 369 369 117 58 186 76 317 83 204 11 385 -46 551 -173 59 -46 105 -62 53
-19 -105 88 -249 163 -365 191 -89 22 -254 26 -345 9z"/>
<path d="M1980 4638 c-35 -5 -98 -20 -140 -34 -252 -85 -438 -278 -516 -539
-23 -77 -26 -108 -27 -220 0 -112 4 -142 27 -218 14 -49 38 -112 52 -140 150
-297 484 -479 806 -438 338 43 604 274 689 599 26 98 29 277 5 374 -77 327
-348 572 -679 617 -89 12 -126 12 -217 -1z m25 -28 c-3 -5 -11 -10 -16 -10 -6
0 -7 5 -4 10 3 6 11 10 16 10 6 0 7 -4 4 -10z m52 4 c-3 -3 -12 -4 -19 -1 -8
3 -5 6 6 6 11 1 17 -2 13 -5z m50 0 c-3 -3 -12 -4 -19 -1 -8 3 -5 6 6 6 11 1
17 -2 13 -5z m46 -1 c-7 -2 -19 -2 -25 0 -7 3 -2 5 12 5 14 0 19 -2 13 -5z
m47 -3 c8 -5 11 -10 5 -10 -5 0 -17 5 -25 10 -8 5 -10 10 -5 10 6 0 17 -5 25
-10z m-233 -6 c-3 -3 -12 -4 -19 -1 -8 3 -5 6 6 6 11 1 17 -2 13 -5z m280 0
c-3 -3 -12 -4 -19 -1 -8 3 -5 6 6 6 11 1 17 -2 13 -5z m-327 -8 c0 -2 -7 -6
-15 -10 -8 -3 -15 -1 -15 4 0 6 7 10 15 10 8 0 15 -2 15 -4z m380 -6 c0 -5 -7
-7 -15 -4 -8 4 -15 8 -15 10 0 2 7 4 15 4 8 0 15 -4 15 -10z m-435 -10 c-3 -5
-12 -10 -18 -10 -7 0 -6 4 3 10 19 12 23 12 15 0z m475 0 c13 -8 13 -10 -2
-10 -9 0 -20 5 -23 10 -8 13 5 13 25 0z m-510 -14 c0 -2 -7 -6 -15 -10 -8 -3
-15 -1 -15 4 0 6 7 10 15 10 8 0 15 -2 15 -4z m560 -6 c0 -5 -7 -7 -15 -4 -8
4 -15 8 -15 10 0 2 7 4 15 4 8 0 15 -4 15 -10z m-610 -14 c0 -2 -7 -7 -16 -10
-8 -3 -12 -2 -9 4 6 10 25 14 25 6z m647 -2 c-3 -3 -12 -4 -19 -1 -8 3 -5 6 6
6 11 1 17 -2 13 -5z m-118 -40 c195 -65 357 -216 429 -400 104 -263 42 -557
-158 -754 -116 -114 -270 -184 -423 -195 l-72 -5 89 15 c114 19 143 28 241 78
105 54 225 172 277 272 60 115 82 204 83 325 0 129 -14 188 -72 309 -60 124
-167 236 -288 298 -98 50 -127 59 -241 78 l-89 15 74 -5 c40 -3 108 -17 150
-31z m-569 22 c0 -2 -7 -7 -16 -10 -8 -3 -12 -2 -9 4 6 10 25 14 25 6z m735
-6 c3 -6 -1 -7 -9 -4 -18 7 -21 14 -7 14 6 0 13 -4 16 -10z m-780 -20 c-3 -5
-11 -10 -16 -10 -6 0 -7 5 -4 10 3 6 11 10 16 10 6 0 7 -4 4 -10z m820 -8 c-3
-3 -11 0 -18 7 -9 10 -8 11 6 5 10 -3 15 -9 12 -12z m-855 -16 c0 -2 -7 -7
-16 -10 -8 -3 -12 -2 -9 4 6 10 25 14 25 6z m895 -6 c3 -5 2 -10 -4 -10 -5 0
-13 5 -16 10 -3 6 -2 10 4 10 5 0 13 -4 16 -10z m-940 -29 c-3 -6 -11 -11 -17
-11 -6 0 -6 6 2 15 14 17 26 13 15 -4z m980 -1 c3 -5 2 -10 -4 -10 -5 0 -13 5
-16 10 -3 6 -2 10 4 10 5 0 13 -4 16 -10z m-352 -41 c17 -27 1 -51 -30 -47
-20 2 -29 9 -31 25 -7 46 -137 43 -223 -4 -106 -57 -149 -140 -149 -285 l0
-88 286 0 286 0 -4 103 c-3 72 -9 112 -22 135 -9 19 -15 36 -12 39 16 16 40
-80 44 -174 l4 -103 49 0 c36 0 54 -5 69 -20 19 -19 20 -33 20 -318 0 -253 -2
-301 -16 -320 l-15 -22 -401 0 c-360 0 -403 2 -420 17 -17 15 -18 38 -18 321
0 353 -3 342 85 342 l53 0 4 108 c5 136 29 186 120 256 56 42 110 55 217 53
74 -2 96 -6 104 -18z m-693 -13 c0 -2 -8 -10 -17 -17 -16 -13 -17 -12 -4 4 13
16 21 21 21 13z m-8 -73 c-61 -72 -110 -159 -139 -248 -24 -71 -27 -95 -27
-220 0 -125 3 -149 27 -220 34 -103 87 -191 164 -275 255 -275 689 -306 983
-69 34 28 64 48 66 46 7 -6 -69 -67 -136 -109 -128 -81 -260 -113 -429 -106
-187 9 -344 79 -481 217 -87 88 -139 173 -177 286 -25 73 -27 94 -27 230 0
136 2 157 27 230 14 44 43 108 64 143 43 69 112 156 120 148 3 -3 -13 -26 -35
-53z m1154 20 c-7 -7 -26 7 -26 19 0 6 6 6 15 -2 9 -7 13 -15 11 -17z m-1186
7 c0 -5 -5 -10 -11 -10 -5 0 -7 5 -4 10 3 6 8 10 11 10 2 0 4 -4 4 -10z m-20
-24 c0 -2 -8 -10 -17 -17 -16 -13 -17 -12 -4 4 13 16 21 21 21 13z m1230 -11
c7 -9 8 -15 2 -15 -5 0 -12 7 -16 15 -3 8 -4 15 -2 15 2 0 9 -7 16 -15z
m-1267 -40 c-3 -9 -8 -14 -10 -11 -3 3 -2 9 2 15 9 16 15 13 8 -4z m1297 -6
c0 -6 -4 -7 -10 -4 -5 3 -10 11 -10 16 0 6 5 7 10 4 6 -3 10 -11 10 -16z
m-1329 -42 c-10 -9 -11 -8 -5 6 3 10 9 15 12 12 3 -3 0 -11 -7 -18z m1353 7
c5 -14 4 -15 -9 -4 -17 14 -19 20 -6 20 5 0 12 -7 15 -16z m-1373 -51 c-12
-20 -14 -14 -5 12 4 9 9 14 11 11 3 -2 0 -13 -6 -23z m1399 -8 c0 -5 -5 -3
-10 5 -5 8 -10 20 -10 25 0 6 5 3 10 -5 5 -8 10 -19 10 -25z m-1418 -37 c-7
-7 -12 -8 -12 -2 0 14 12 26 19 19 2 -3 -1 -11 -7 -17z m1438 1 c0 -6 -4 -7
-10 -4 -5 3 -10 11 -10 16 0 6 5 7 10 4 6 -3 10 -11 10 -16z m-1453 -41 c-3
-8 -6 -5 -6 6 -1 11 2 17 5 13 3 -3 4 -12 1 -19z m1460 0 c-3 -8 -6 -5 -6 6
-1 11 2 17 5 13 3 -3 4 -12 1 -19z m-1474 -43 c-3 -9 -8 -14 -10 -11 -3 3 -2
9 2 15 9 16 15 13 8 -4z m1491 -1 c3 -8 2 -12 -4 -9 -6 3 -10 10 -10 16 0 14
7 11 14 -7z m16 -59 c0 -5 -5 -3 -10 5 -5 8 -10 20 -10 25 0 6 5 3 10 -5 5 -8
10 -19 10 -25z m-1523 3 c-3 -8 -6 -5 -6 6 -1 11 2 17 5 13 3 -3 4 -12 1 -19z
m3 -33 c0 -8 -4 -15 -10 -15 -5 0 -7 7 -4 15 4 8 8 15 10 15 2 0 4 -7 4 -15z
m1517 -7 c-3 -8 -6 -5 -6 6 -1 11 2 17 5 13 3 -3 4 -12 1 -19z m-1530 -50 c-3
-8 -6 -5 -6 6 -1 11 2 17 5 13 3 -3 4 -12 1 -19z m1540 0 c-3 -8 -6 -5 -6 6
-1 11 2 17 5 13 3 -3 4 -12 1 -19z m-1540 -50 c-3 -8 -6 -5 -6 6 -1 11 2 17 5
13 3 -3 4 -12 1 -19z m1540 0 c-3 -8 -6 -5 -6 6 -1 11 2 17 5 13 3 -3 4 -12 1
-19z m0 -50 c-3 -7 -5 -2 -5 12 0 14 2 19 5 13 2 -7 2 -19 0 -25z m-1540 0
c-3 -8 -6 -5 -6 6 -1 11 2 17 5 13 3 -3 4 -12 1 -19z m0 -50 c-3 -7 -5 -2 -5
12 0 14 2 19 5 13 2 -7 2 -19 0 -25z m1543 17 c0 -8 -4 -15 -10 -15 -5 0 -7 7
-4 15 4 8 8 15 10 15 2 0 4 -7 4 -15z m-1533 -57 c-3 -8 -6 -5 -6 6 -1 11 2
17 5 13 3 -3 4 -12 1 -19z m1520 0 c-3 -8 -6 -5 -6 6 -1 11 2 17 5 13 3 -3 4
-12 1 -19z m-1510 -50 c-3 -8 -6 -5 -6 6 -1 11 2 17 5 13 3 -3 4 -12 1 -19z
m1500 0 c-3 -8 -6 -5 -6 6 -1 11 2 17 5 13 3 -3 4 -12 1 -19z m-1490 -40 c-3
-8 -6 -5 -6 6 -1 11 2 17 5 13 3 -3 4 -12 1 -19z m1479 -4 c-4 -9 -9 -15 -11
-12 -3 3 -3 13 1 22 4 9 9 15 11 12 3 -3 3 -13 -1 -22z m-1458 -49 c-3 -3 -9
2 -12 12 -6 14 -5 15 5 6 7 -7 10 -15 7 -18z m1445 10 c-3 -9 -8 -14 -10 -11
-3 3 -2 9 2 15 9 16 15 13 8 -4z m-1423 -60 c0 -5 -5 -3 -10 5 -5 8 -10 20
-10 25 0 6 5 3 10 -5 5 -8 10 -19 10 -25z m1401 8 c-8 -15 -10 -15 -11 -2 0
17 10 32 18 25 2 -3 -1 -13 -7 -23z m-1383 -48 c-3 -3 -9 2 -12 12 -6 14 -5
15 5 6 7 -7 10 -15 7 -18z m1365 10 c-3 -9 -8 -14 -10 -11 -3 3 -2 9 2 15 9
16 15 13 8 -4z m-1343 -40 c7 -9 8 -15 2 -15 -5 0 -12 7 -16 15 -3 8 -4 15 -2
15 2 0 9 -7 16 -15z m1330 11 c0 -2 -7 -9 -15 -16 -13 -11 -14 -10 -9 4 5 14
24 23 24 12z m-1300 -57 c0 -6 -4 -7 -10 -4 -5 3 -10 11 -10 16 0 6 5 7 10 4
6 -3 10 -11 10 -16z m1263 6 c-3 -9 -8 -14 -10 -11 -3 3 -2 9 2 15 9 16 15 13
8 -4z m-1233 -46 c0 -6 -4 -7 -10 -4 -5 3 -10 11 -10 16 0 6 5 7 10 4 6 -3 10
-11 10 -16z m1203 6 c-3 -9 -8 -14 -10 -11 -3 3 -2 9 2 15 9 16 15 13 8 -4z
m-1142 -72 c13 -16 12 -17 -3 -4 -10 7 -18 15 -18 17 0 8 8 3 21 -13z m1089
13 c0 -2 -8 -10 -17 -17 -16 -13 -17 -12 -4 4 13 16 21 21 21 13z m-40 -40 c0
-3 -4 -8 -10 -11 -5 -3 -10 -1 -10 4 0 6 5 11 10 11 6 0 10 -2 10 -4z m-975
-36 c3 -6 -1 -7 -9 -4 -18 7 -21 14 -7 14 6 0 13 -4 16 -10z m35 -25 c11 -13
10 -14 -4 -9 -9 3 -16 10 -16 15 0 13 6 11 20 -6z m860 0 c-7 -9 -15 -13 -19
-10 -3 3 1 10 9 15 21 14 24 12 10 -5z m-815 -25 c3 -5 2 -10 -4 -10 -5 0 -13
5 -16 10 -3 6 -2 10 4 10 5 0 13 -4 16 -10z m780 0 c-3 -5 -11 -10 -16 -10 -6
0 -7 5 -4 10 3 6 11 10 16 10 6 0 7 -4 4 -10z m-740 -28 c-3 -3 -11 0 -18 7
-9 10 -8 11 6 5 10 -3 15 -9 12 -12z m700 8 c-3 -5 -12 -10 -18 -10 -7 0 -6 4
3 10 19 12 23 12 15 0z m-48 -26 c-3 -3 -12 -4 -19 -1 -8 3 -5 6 6 6 11 1 17
-2 13 -5z m-562 -22 c-3 -3 -11 0 -18 7 -9 10 -8 11 6 5 10 -3 15 -9 12 -12z
m520 8 c-3 -5 -12 -10 -18 -10 -7 0 -6 4 3 10 19 12 23 12 15 0z m-470 -20 c3
-6 -1 -7 -9 -4 -18 7 -21 14 -7 14 6 0 13 -4 16 -10z m422 4 c-3 -3 -12 -4
-19 -1 -8 3 -5 6 6 6 11 1 17 -2 13 -5z m-377 -14 c0 -5 -7 -7 -15 -4 -8 4
-15 8 -15 10 0 2 7 4 15 4 8 0 15 -4 15 -10z m340 6 c0 -2 -7 -6 -15 -10 -8
-3 -15 -1 -15 4 0 6 7 10 15 10 8 0 15 -2 15 -4z m-293 -12 c-3 -3 -12 -4 -19
-1 -8 3 -5 6 6 6 11 1 17 -2 13 -5z m240 0 c-3 -3 -12 -4 -19 -1 -8 3 -5 6 6
6 11 1 17 -2 13 -5z m-190 -10 c-3 -3 -12 -4 -19 -1 -8 3 -5 6 6 6 11 1 17 -2
13 -5z m46 -1 c-7 -2 -19 -2 -25 0 -7 3 -2 5 12 5 14 0 19 -2 13 -5z m50 0
c-7 -2 -19 -2 -25 0 -7 3 -2 5 12 5 14 0 19 -2 13 -5z m44 1 c-3 -3 -12 -4
-19 -1 -8 3 -5 6 6 6 11 1 17 -2 13 -5z"/>
<path d="M2197 4404 c-4 -4 -7 -16 -7 -26 0 -14 6 -19 23 -16 14 2 22 10 22
23 0 20 -25 32 -38 19z"/>
<path d="M1687 3972 c-11 -12 -17 -36 -17 -70 l0 -52 425 0 425 0 0 48 c0 27
-7 57 -16 70 l-15 22 -393 0 c-368 0 -394 -1 -409 -18z"/>
<path d="M1670 3825 c0 -13 54 -15 425 -15 371 0 425 2 425 15 0 13 -54 15
-425 15 -371 0 -425 -2 -425 -15z"/>
<path d="M1670 3582 c0 -199 2 -220 18 -235 17 -15 60 -17 410 -17 l391 0 15
22 c13 19 16 59 16 235 l0 213 -425 0 -425 0 0 -218z m461 102 c10 -12 10 -22
1 -48 -7 -18 -12 -62 -12 -99 0 -65 -1 -67 -25 -67 -24 0 -25 2 -25 74 0 41
-4 78 -10 81 -14 9 -13 48 2 63 17 17 53 15 69 -4z"/>
<path d="M2063 3674 c-3 -9 -1 -25 5 -35 7 -10 12 -50 12 -89 0 -56 3 -70 15
-70 12 0 15 15 15 73 0 40 5 78 11 84 6 6 8 20 4 32 -8 26 -53 29 -62 5z"/>
<path d="M3077 4423 l-398 -3 38 -50 38 -49 398 -1 c237 0 397 4 397 9 0 5
-11 18 -25 29 -14 11 -25 23 -25 27 0 5 9 0 20 -10 11 -10 20 -15 20 -12 0 6
-61 68 -63 65 -1 -2 -181 -4 -400 -5z m419 -30 c-7 -7 -26 7 -26 19 0 6 6 6
15 -2 9 -7 13 -15 11 -17z"/>
<path d="M3555 4340 c17 -19 31 -20 272 -20 139 0 253 3 253 8 0 4 -106 6
-235 4 -198 -3 -240 -1 -267 12 -41 21 -45 20 -23 -4z"/>
<path d="M4089 4310 c-1 -19 -3 -27 -6 -17 -4 16 -25 17 -251 17 l-246 0 54
-55 54 -55 121 0 120 0 85 -85 85 -85 68 0 c38 0 76 4 86 9 22 12 46 -2 38
-23 -7 -18 -32 -21 -42 -6 -3 6 -36 10 -72 10 l-66 0 23 -25 23 -25 283 0
c252 0 283 2 288 16 5 14 4 15 -8 5 -11 -9 -65 -11 -196 -9 -200 3 -178 -3
-232 70 -14 20 -19 21 -37 11 -11 -7 -51 -13 -87 -13 l-66 0 -84 86 c-111 114
-111 124 11 134 64 5 70 7 73 29 2 13 -1 28 -7 34 -8 8 -11 1 -12 -23z"/>
<path d="M2770 4306 c0 -3 14 -27 31 -55 l32 -51 418 0 c231 0 419 4 419 8 0
4 -22 29 -48 55 l-48 47 -402 0 c-221 0 -402 -2 -402 -4z"/>
<path d="M2840 4183 c0 -27 41 -108 56 -113 31 -10 914 -12 914 -2 0 5 -27 34
-59 65 l-60 57 -425 0 c-234 0 -426 -3 -426 -7z"/>
<path d="M3767 4129 l61 -62 65 -1 c46 -1 71 -7 85 -19 12 -11 35 -17 68 -17
l49 0 -80 80 -80 80 -115 0 -115 0 62 -61z"/>
<path d="M2890 4033 c0 -10 3 -28 6 -40 6 -22 11 -23 121 -23 l115 0 66 -60
67 -60 990 0 c978 0 991 0 1008 20 20 24 15 25 -18 4 -21 -14 -55 -15 -238
-12 -164 2 -218 6 -231 17 -15 13 -15 15 1 33 15 16 15 18 1 13 -10 -4 -25 2
-37 14 -20 20 -31 21 -293 21 l-272 0 34 -35 c34 -35 34 -35 122 -35 52 0 88
4 88 10 0 12 27 13 34 1 3 -5 -2 -8 -12 -7 -9 0 -16 -3 -15 -9 1 -6 -33 -9
-91 -7 l-93 3 -39 40 -38 39 -121 0 -121 0 -47 45 -47 45 -470 0 c-441 0 -470
-1 -470 -17z"/>
<path d="M3885 4010 l39 -40 115 0 114 0 -23 25 c-20 21 -32 25 -86 25 -42 0
-65 5 -74 15 -8 10 -31 15 -68 15 l-56 0 39 -40z"/>
<path d="M4260 4020 c0 -5 7 -10 15 -10 8 0 15 5 15 10 0 6 -7 10 -15 10 -8 0
-15 -4 -15 -10z"/>
<path d="M4744 3976 c-8 -21 3 -36 27 -36 15 0 20 6 17 22 -4 27 -35 37 -44
14z"/>
<path d="M2908 3876 c4 -73 -7 -182 -24 -238 -5 -17 12 -18 265 -18 188 0 277
4 290 12 21 13 55 4 49 -13 -3 -9 -89 -11 -309 -10 l-305 2 -13 -41 c-7 -23
-15 -48 -18 -56 -4 -12 60 -14 419 -14 l423 0 120 120 120 120 120 0 121 0 34
35 c34 35 34 35 125 35 53 0 96 5 102 11 15 15 33 3 33 -22 0 -12 -7 -19 -20
-19 -11 0 -20 5 -20 10 0 6 -36 10 -88 10 -85 0 -89 -1 -117 -30 l-29 -30 411
0 c369 0 411 2 417 16 5 13 1 15 -18 10 -26 -6 -98 15 -103 31 -6 17 35 24
184 30 121 5 146 3 167 -11 37 -24 70 -20 86 10 15 27 6 54 -21 63 -9 3 -8 -1
4 -13 20 -20 22 -37 5 -54 -16 -16 -43 -15 -58 3 -11 13 -135 15 -1009 15
l-997 0 -59 60 -59 60 -116 0 -116 0 4 -84z m852 -146 c0 -13 -7 -20 -20 -20
-13 0 -20 7 -20 20 0 13 7 20 20 20 13 0 20 -7 20 -20z"/>
<path d="M4430 3805 c0 -8 5 -15 10 -15 6 0 10 7 10 15 0 8 -4 15 -10 15 -5 0
-10 -7 -10 -15z"/>
<path d="M5024 3746 c-7 -18 1 -46 13 -46 4 0 15 5 23 10 11 7 12 14 4 27 -15
24 -33 28 -40 9z"/>
<path d="M3815 3610 l-110 -110 110 0 110 0 110 110 110 110 -110 0 -110 0
-110 -110z"/>
<path d="M4050 3605 l-115 -115 -120 0 -121 0 -49 -50 -50 -51 221 1 221 1 74
77 74 77 -80 -75 -80 -75 73 76 c40 42 81 76 90 77 38 5 527 0 534 -4 4 -3 8
-1 8 4 0 6 -65 13 -147 17 -98 4 -165 12 -198 23 -45 16 -50 20 -50 47 0 44
46 61 191 73 115 9 112 9 -121 11 l-240 1 -115 -115z"/>
<path d="M3450 3620 c0 -5 5 -10 10 -10 6 0 10 5 10 10 0 6 -4 10 -10 10 -5 0
-10 -4 -10 -10z"/>
<path d="M4746 3563 c-11 -11 -6 -23 9 -23 8 0 15 4 15 9 0 13 -16 22 -24 14z"/>
<path d="M2802 3440 l-31 -50 402 0 403 0 49 50 49 50 -420 0 -421 0 -31 -50z"/>
<path d="M2722 3325 l-43 -55 388 0 389 0 54 55 54 55 -399 0 -400 0 -43 -55z"/>
<path d="M3525 3320 l-59 -60 30 0 c21 0 39 10 60 31 54 57 84 69 195 78 l104
8 -135 2 -136 1 -59 -60z"/>
<path d="M2644 3238 c-17 -21 -17 -21 -1 -8 15 11 73 15 275 18 142 2 259 6
261 8 2 2 -113 4 -256 4 -257 0 -260 0 -279 -22z"/>
<path d="M2599 3203 c-13 -16 -12 -17 4 -4 16 13 21 21 13 21 -2 0 -10 -8 -17
-17z"/>
</g>
</svg>
