<?xml version="1.0" encoding="utf-8"?>
<svg xmlns="http://www.w3.org/2000/svg" xmlns:xlink="http://www.w3.org/1999/xlink" xml:space="preserve" width="870" height="870" viewBox="0 0 870 870"><rect width="870" height="870" fill="#ffffff" x="36.25" y="36.25"/><g transform="scale(36.25)" fill="#000000"><path d="M21,1c1.1,0,2,0.9,2,2v18c0,1.1-0.9,2-2,2H3c-1.1,0-2-0.9-2-2V3c0-1.1,0.9-2,2-2H21 M21,0H3C1.34,0,0,1.34,0,3v18  c0,1.66,1.34,3,3,3h18c1.66,0,3-1.34,3-3V3C24,1.34,22.66,0,21,0L21,0z"/></g><g fill="#000000">
<g transform="translate(303,87) scale(4.12)"><rect width="6" height="6"/></g>
<g transform="translate(351,87) scale(4.12)"><rect width="6" height="6"/></g>
<g transform="translate(447,87) scale(4.12)"><rect width="6" height="6"/></g>
<g transform="translate(471,87) scale(4.12)"><rect width="6" height="6"/></g>
<g transform="translate(519,87) scale(4.12)"><rect width="6" height="6"/></g>
<g transform="translate(543,87) scale(4.12)"><rect width="6" height="6"/></g>
<g transform="translate(567,87) scale(4.12)"><rect width="6" height="6"/></g>
<g transform="translate(303,111) scale(4.12)"><rect width="6" height="6"/></g>
<g transform="translate(351,111) scale(4.12)"><rect width="6" height="6"/></g>
<g transform="translate(495,111) scale(4.12)"><rect width="6" height="6"/></g>
<g transform="translate(519,111) scale(4.12)"><rect width="6" height="6"/></g>
<g transform="translate(567,111) scale(4.12)"><rect width="6" height="6"/></g>
<g transform="translate(279,135) scale(4.12)"><rect width="6" height="6"/></g>
<g transform="translate(351,135) scale(4.12)"><rect width="6" height="6"/></g>
<g transform="translate(375,135) scale(4.12)"><rect width="6" height="6"/></g>
<g transform="translate(423,135) scale(4.12)"><rect width="6" height="6"/></g>
<g transform="translate(471,135) scale(4.12)"><rect width="6" height="6"/></g>
<g transform="translate(519,135) scale(4.12)"><rect width="6" height="6"/></g>
<g transform="translate(567,135) scale(4.12)"><rect width="6" height="6"/></g>
<g transform="translate(279,159) scale(4.12)"><rect width="6" height="6"/></g>
<g transform="translate(375,159) scale(4.12)"><rect width="6" height="6"/></g>
<g transform="translate(471,159) scale(4.12)"><rect width="6" height="6"/></g>
<g transform="translate(495,159) scale(4.12)"><rect width="6" height="6"/></g>
<g transform="translate(519,159) scale(4.12)"><rect width="6" height="6"/></g>
<g transform="translate(567,159) scale(4.12)"><rect width="6" height="6"/></g>
<g transform="translate(279,183) scale(4.12)"><rect width="6" height="6"/></g>
<g transform="translate(351,183) scale(4.12)"><rect width="6" height="6"/></g>
<g transform="translate(375,183) scale(4.12)"><rect width="6" height="6"/></g>
<g transform="translate(399,183) scale(4.12)"><rect width="6" height="6"/></g>
<g transform="translate(423,183) scale(4.12)"><rect width="6" height="6"/></g>
<g transform="translate(447,183) scale(4.12)"><rect width="6" height="6"/></g>
<g transform="translate(495,183) scale(4.12)"><rect width="6" height="6"/></g>
<g transform="translate(519,183) scale(4.12)"><rect width="6" height="6"/></g>
<g transform="translate(543,183) scale(4.12)"><rect width="6" height="6"/></g>
<g transform="translate(567,183) scale(4.12)"><rect width="6" height="6"/></g>
<g transform="translate(279,207) scale(4.12)"><rect width="6" height="6"/></g>
<g transform="translate(327,207) scale(4.12)"><rect width="6" height="6"/></g>
<g transform="translate(375,207) scale(4.12)"><rect width="6" height="6"/></g>
<g transform="translate(399,207) scale(4.12)"><rect width="6" height="6"/></g>
<g transform="translate(423,207) scale(4.12)"><rect width="6" height="6"/></g>
<g transform="translate(447,207) scale(4.12)"><rect width="6" height="6"/></g>
<g transform="translate(471,207) scale(4.12)"><rect width="6" height="6"/></g>
<g transform="translate(495,207) scale(4.12)"><rect width="6" height="6"/></g>
<g transform="translate(279,231) scale(4.12)"><rect width="6" height="6"/></g>
<g transform="translate(327,231) scale(4.12)"><rect width="6" height="6"/></g>
<g transform="translate(375,231) scale(4.12)"><rect width="6" height="6"/></g>
<g transform="translate(423,231) scale(4.12)"><rect width="6" height="6"/></g>
<g transform="translate(471,231) scale(4.12)"><rect width="6" height="6"/></g>
<g transform="translate(519,231) scale(4.12)"><rect width="6" height="6"/></g>
<g transform="translate(567,231) scale(4.12)"><rect width="6" height="6"/></g>
<g transform="translate(279,255) scale(4.12)"><rect width="6" height="6"/></g>
<g transform="translate(303,255) scale(4.12)"><rect width="6" height="6"/></g>
<g transform="translate(327,255) scale(4.12)"><rect width="6" height="6"/></g>
<g transform="translate(399,255) scale(4.12)"><rect width="6" height="6"/></g>
<g transform="translate(447,255) scale(4.12)"><rect width="6" height="6"/></g>
<g transform="translate(519,255) scale(4.12)"><rect width="6" height="6"/></g>
<g transform="translate(87,279) scale(4.12)"><rect width="6" height="6"/></g>
<g transform="translate(135,279) scale(4.12)"><rect width="6" height="6"/></g>
<g transform="translate(159,279) scale(4.12)"><rect width="6" height="6"/></g>
<g transform="translate(183,279) scale(4.12)"><rect width="6" height="6"/></g>
<g transform="translate(207,279) scale(4.12)"><rect width="6" height="6"/></g>
<g transform="translate(231,279) scale(4.12)"><rect width="6" height="6"/></g>
<g transform="translate(375,279) scale(4.12)"><rect width="6" height="6"/></g>
<g transform="translate(423,279) scale(4.12)"><rect width="6" height="6"/></g>
<g transform="translate(447,279) scale(4.12)"><rect width="6" height="6"/></g>
<g transform="translate(495,279) scale(4.12)"><rect width="6" height="6"/></g>
<g transform="translate(543,279) scale(4.12)"><rect width="6" height="6"/></g>
<g transform="translate(615,279) scale(4.12)"><rect width="6" height="6"/></g>
<g transform="translate(639,279) scale(4.12)"><rect width="6" height="6"/></g>
<g transform="translate(663,279) scale(4.12)"><rect width="6" height="6"/></g>
<g transform="translate(687,279) scale(4.12)"><rect width="6" height="6"/></g>
<g transform="translate(711,279) scale(4.12)"><rect width="6" height="6"/></g>
<g transform="translate(135,303) scale(4.12)"><rect width="6" height="6"/></g>
<g transform="translate(303,303) scale(4.12)"><rect width="6" height="6"/></g>
<g transform="translate(327,303) scale(4.12)"><rect width="6" height="6"/></g>
<g transform="translate(375,303) scale(4.12)"><rect width="6" height="6"/></g>
<g transform="translate(447,303) scale(4.12)"><rect width="6" height="6"/></g>
<g transform="translate(471,303) scale(4.12)"><rect width="6" height="6"/></g>
<g transform="translate(495,303) scale(4.12)"><rect width="6" height="6"/></g>
<g transform="translate(519,303) scale(4.12)"><rect width="6" height="6"/></g>
<g transform="translate(543,303) scale(4.12)"><rect width="6" height="6"/></g>
<g transform="translate(567,303) scale(4.12)"><rect width="6" height="6"/></g>
<g transform="translate(591,303) scale(4.12)"><rect width="6" height="6"/></g>
<g transform="translate(615,303) scale(4.12)"><rect width="6" height="6"/></g>
<g transform="translate(639,303) scale(4.12)"><rect width="6" height="6"/></g>
<g transform="translate(663,303) scale(4.12)"><rect width="6" height="6"/></g>
<g transform="translate(759,303) scale(4.12)"><rect width="6" height="6"/></g>
<g transform="translate(87,327) scale(4.12)"><rect width="6" height="6"/></g>
<g transform="translate(111,327) scale(4.12)"><rect width="6" height="6"/></g>
<g transform="translate(135,327) scale(4.12)"><rect width="6" height="6"/></g>
<g transform="translate(159,327) scale(4.12)"><rect width="6" height="6"/></g>
<g transform="translate(183,327) scale(4.12)"><rect width="6" height="6"/></g>
<g transform="translate(231,327) scale(4.12)"><rect width="6" height="6"/></g>
<g transform="translate(255,327) scale(4.12)"><rect width="6" height="6"/></g>
<g transform="translate(303,327) scale(4.12)"><rect width="6" height="6"/></g>
<g transform="translate(351,327) scale(4.12)"><rect width="6" height="6"/></g>
<g transform="translate(375,327) scale(4.12)"><rect width="6" height="6"/></g>
<g transform="translate(519,327) scale(4.12)"><rect width="6" height="6"/></g>
<g transform="translate(591,327) scale(4.12)"><rect width="6" height="6"/></g>
<g transform="translate(615,327) scale(4.12)"><rect width="6" height="6"/></g>
<g transform="translate(639,327) scale(4.12)"><rect width="6" height="6"/></g>
<g transform="translate(111,351) scale(4.12)"><rect width="6" height="6"/></g>
<g transform="translate(135,351) scale(4.12)"><rect width="6" height="6"/></g>
<g transform="translate(183,351) scale(4.12)"><rect width="6" height="6"/></g>
<g transform="translate(207,351) scale(4.12)"><rect width="6" height="6"/></g>
<g transform="translate(303,351) scale(4.12)"><rect width="6" height="6"/></g>
<g transform="translate(351,351) scale(4.12)"><rect width="6" height="6"/></g>
<g transform="translate(375,351) scale(4.12)"><rect width="6" height="6"/></g>
<g transform="translate(423,351) scale(4.12)"><rect width="6" height="6"/></g>
<g transform="translate(471,351) scale(4.12)"><rect width="6" height="6"/></g>
<g transform="translate(567,351) scale(4.12)"><rect width="6" height="6"/></g>
<g transform="translate(663,351) scale(4.12)"><rect width="6" height="6"/></g>
<g transform="translate(687,351) scale(4.12)"><rect width="6" height="6"/></g>
<g transform="translate(735,351) scale(4.12)"><rect width="6" height="6"/></g>
<g transform="translate(87,375) scale(4.12)"><rect width="6" height="6"/></g>
<g transform="translate(111,375) scale(4.12)"><rect width="6" height="6"/></g>
<g transform="translate(135,375) scale(4.12)"><rect width="6" height="6"/></g>
<g transform="translate(231,375) scale(4.12)"><rect width="6" height="6"/></g>
<g transform="translate(255,375) scale(4.12)"><rect width="6" height="6"/></g>
<g transform="translate(327,375) scale(4.12)"><rect width="6" height="6"/></g>
<g transform="translate(351,375) scale(4.12)"><rect width="6" height="6"/></g>
<g transform="translate(471,375) scale(4.12)"><rect width="6" height="6"/></g>
<g transform="translate(495,375) scale(4.12)"><rect width="6" height="6"/></g>
<g transform="translate(567,375) scale(4.12)"><rect width="6" height="6"/></g>
<g transform="translate(687,375) scale(4.12)"><rect width="6" height="6"/></g>
<g transform="translate(711,375) scale(4.12)"><rect width="6" height="6"/></g>
<g transform="translate(87,399) scale(4.12)"><rect width="6" height="6"/></g>
<g transform="translate(135,399) scale(4.12)"><rect width="6" height="6"/></g>
<g transform="translate(159,399) scale(4.12)"><rect width="6" height="6"/></g>
<g transform="translate(207,399) scale(4.12)"><rect width="6" height="6"/></g>
<g transform="translate(255,399) scale(4.12)"><rect width="6" height="6"/></g>
<g transform="translate(327,399) scale(4.12)"><rect width="6" height="6"/></g>
<g transform="translate(399,399) scale(4.12)"><rect width="6" height="6"/></g>
<g transform="translate(423,399) scale(4.12)"><rect width="6" height="6"/></g>
<g transform="translate(447,399) scale(4.12)"><rect width="6" height="6"/></g>
<g transform="translate(495,399) scale(4.12)"><rect width="6" height="6"/></g>
<g transform="translate(519,399) scale(4.12)"><rect width="6" height="6"/></g>
<g transform="translate(543,399) scale(4.12)"><rect width="6" height="6"/></g>
<g transform="translate(567,399) scale(4.12)"><rect width="6" height="6"/></g>
<g transform="translate(591,399) scale(4.12)"><rect width="6" height="6"/></g>
<g transform="translate(615,399) scale(4.12)"><rect width="6" height="6"/></g>
<g transform="translate(639,399) scale(4.12)"><rect width="6" height="6"/></g>
<g transform="translate(663,399) scale(4.12)"><rect width="6" height="6"/></g>
<g transform="translate(759,399) scale(4.12)"><rect width="6" height="6"/></g>
<g transform="translate(111,423) scale(4.12)"><rect width="6" height="6"/></g>
<g transform="translate(183,423) scale(4.12)"><rect width="6" height="6"/></g>
<g transform="translate(207,423) scale(4.12)"><rect width="6" height="6"/></g>
<g transform="translate(231,423) scale(4.12)"><rect width="6" height="6"/></g>
<g transform="translate(303,423) scale(4.12)"><rect width="6" height="6"/></g>
<g transform="translate(351,423) scale(4.12)"><rect width="6" height="6"/></g>
<g transform="translate(375,423) scale(4.12)"><rect width="6" height="6"/></g>
<g transform="translate(399,423) scale(4.12)"><rect width="6" height="6"/></g>
<g transform="translate(423,423) scale(4.12)"><rect width="6" height="6"/></g>
<g transform="translate(447,423) scale(4.12)"><rect width="6" height="6"/></g>
<g transform="translate(471,423) scale(4.12)"><rect width="6" height="6"/></g>
<g transform="translate(495,423) scale(4.12)"><rect width="6" height="6"/></g>
<g transform="translate(567,423) scale(4.12)"><rect width="6" height="6"/></g>
<g transform="translate(591,423) scale(4.12)"><rect width="6" height="6"/></g>
<g transform="translate(615,423) scale(4.12)"><rect width="6" height="6"/></g>
<g transform="translate(639,423) scale(4.12)"><rect width="6" height="6"/></g>
<g transform="translate(663,423) scale(4.12)"><rect width="6" height="6"/></g>
<g transform="translate(687,423) scale(4.12)"><rect width="6" height="6"/></g>
<g transform="translate(711,423) scale(4.12)"><rect width="6" height="6"/></g>
<g transform="translate(111,447) scale(4.12)"><rect width="6" height="6"/></g>
<g transform="translate(135,447) scale(4.12)"><rect width="6" height="6"/></g>
<g transform="translate(159,447) scale(4.12)"><rect width="6" height="6"/></g>
<g transform="translate(183,447) scale(4.12)"><rect width="6" height="6"/></g>
<g transform="translate(207,447) scale(4.12)"><rect width="6" height="6"/></g>
<g transform="translate(255,447) scale(4.12)"><rect width="6" height="6"/></g>
<g transform="translate(279,447) scale(4.12)"><rect width="6" height="6"/></g>
<g transform="translate(327,447) scale(4.12)"><rect width="6" height="6"/></g>
<g transform="translate(399,447) scale(4.12)"><rect width="6" height="6"/></g>
<g transform="translate(447,447) scale(4.12)"><rect width="6" height="6"/></g>
<g transform="translate(639,447) scale(4.12)"><rect width="6" height="6"/></g>
<g transform="translate(663,447) scale(4.12)"><rect width="6" height="6"/></g>
<g transform="translate(735,447) scale(4.12)"><rect width="6" height="6"/></g>
<g transform="translate(111,471) scale(4.12)"><rect width="6" height="6"/></g>
<g transform="translate(183,471) scale(4.12)"><rect width="6" height="6"/></g>
<g transform="translate(207,471) scale(4.12)"><rect width="6" height="6"/></g>
<g transform="translate(231,471) scale(4.12)"><rect width="6" height="6"/></g>
<g transform="translate(279,471) scale(4.12)"><rect width="6" height="6"/></g>
<g transform="translate(375,471) scale(4.12)"><rect width="6" height="6"/></g>
<g transform="translate(423,471) scale(4.12)"><rect width="6" height="6"/></g>
<g transform="translate(447,471) scale(4.12)"><rect width="6" height="6"/></g>
<g transform="translate(495,471) scale(4.12)"><rect width="6" height="6"/></g>
<g transform="translate(519,471) scale(4.12)"><rect width="6" height="6"/></g>
<g transform="translate(543,471) scale(4.12)"><rect width="6" height="6"/></g>
<g transform="translate(687,471) scale(4.12)"><rect width="6" height="6"/></g>
<g transform="translate(711,471) scale(4.12)"><rect width="6" height="6"/></g>
<g transform="translate(87,495) scale(4.12)"><rect width="6" height="6"/></g>
<g transform="translate(111,495) scale(4.12)"><rect width="6" height="6"/></g>
<g transform="translate(159,495) scale(4.12)"><rect width="6" height="6"/></g>
<g transform="translate(183,495) scale(4.12)"><rect width="6" height="6"/></g>
<g transform="translate(207,495) scale(4.12)"><rect width="6" height="6"/></g>
<g transform="translate(255,495) scale(4.12)"><rect width="6" height="6"/></g>
<g transform="translate(303,495) scale(4.12)"><rect width="6" height="6"/></g>
<g transform="translate(447,495) scale(4.12)"><rect width="6" height="6"/></g>
<g transform="translate(471,495) scale(4.12)"><rect width="6" height="6"/></g>
<g transform="translate(495,495) scale(4.12)"><rect width="6" height="6"/></g>
<g transform="translate(519,495) scale(4.12)"><rect width="6" height="6"/></g>
<g transform="translate(543,495) scale(4.12)"><rect width="6" height="6"/></g>
<g transform="translate(567,495) scale(4.12)"><rect width="6" height="6"/></g>
<g transform="translate(615,495) scale(4.12)"><rect width="6" height="6"/></g>
<g transform="translate(639,495) scale(4.12)"><rect width="6" height="6"/></g>
<g transform="translate(663,495) scale(4.12)"><rect width="6" height="6"/></g>
<g transform="translate(711,495) scale(4.12)"><rect width="6" height="6"/></g>
<g transform="translate(759,495) scale(4.12)"><rect width="6" height="6"/></g>
<g transform="translate(87,519) scale(4.12)"><rect width="6" height="6"/></g>
<g transform="translate(183,519) scale(4.12)"><rect width="6" height="6"/></g>
<g transform="translate(207,519) scale(4.12)"><rect width="6" height="6"/></g>
<g transform="translate(231,519) scale(4.12)"><rect width="6" height="6"/></g>
<g transform="translate(255,519) scale(4.12)"><rect width="6" height="6"/></g>
<g transform="translate(279,519) scale(4.12)"><rect width="6" height="6"/></g>
<g transform="translate(327,519) scale(4.12)"><rect width="6" height="6"/></g>
<g transform="translate(495,519) scale(4.12)"><rect width="6" height="6"/></g>
<g transform="translate(567,519) scale(4.12)"><rect width="6" height="6"/></g>
<g transform="translate(639,519) scale(4.12)"><rect width="6" height="6"/></g>
<g transform="translate(711,519) scale(4.12)"><rect width="6" height="6"/></g>
<g transform="translate(87,543) scale(4.12)"><rect width="6" height="6"/></g>
<g transform="translate(183,543) scale(4.12)"><rect width="6" height="6"/></g>
<g transform="translate(255,543) scale(4.12)"><rect width="6" height="6"/></g>
<g transform="translate(327,543) scale(4.12)"><rect width="6" height="6"/></g>
<g transform="translate(423,543) scale(4.12)"><rect width="6" height="6"/></g>
<g transform="translate(471,543) scale(4.12)"><rect width="6" height="6"/></g>
<g transform="translate(543,543) scale(4.12)"><rect width="6" height="6"/></g>
<g transform="translate(567,543) scale(4.12)"><rect width="6" height="6"/></g>
<g transform="translate(591,543) scale(4.12)"><rect width="6" height="6"/></g>
<g transform="translate(663,543) scale(4.12)"><rect width="6" height="6"/></g>
<g transform="translate(735,543) scale(4.12)"><rect width="6" height="6"/></g>
<g transform="translate(87,567) scale(4.12)"><rect width="6" height="6"/></g>
<g transform="translate(135,567) scale(4.12)"><rect width="6" height="6"/></g>
<g transform="translate(159,567) scale(4.12)"><rect width="6" height="6"/></g>
<g transform="translate(231,567) scale(4.12)"><rect width="6" height="6"/></g>
<g transform="translate(255,567) scale(4.12)"><rect width="6" height="6"/></g>
<g transform="translate(471,567) scale(4.12)"><rect width="6" height="6"/></g>
<g transform="translate(519,567) scale(4.12)"><rect width="6" height="6"/></g>
<g transform="translate(567,567) scale(4.12)"><rect width="6" height="6"/></g>
<g transform="translate(591,567) scale(4.12)"><rect width="6" height="6"/></g>
<g transform="translate(615,567) scale(4.12)"><rect width="6" height="6"/></g>
<g transform="translate(639,567) scale(4.12)"><rect width="6" height="6"/></g>
<g transform="translate(663,567) scale(4.12)"><rect width="6" height="6"/></g>
<g transform="translate(711,567) scale(4.12)"><rect width="6" height="6"/></g>
<g transform="translate(735,567) scale(4.12)"><rect width="6" height="6"/></g>
<g transform="translate(759,567) scale(4.12)"><rect width="6" height="6"/></g>
<g transform="translate(279,591) scale(4.12)"><rect width="6" height="6"/></g>
<g transform="translate(375,591) scale(4.12)"><rect width="6" height="6"/></g>
<g transform="translate(399,591) scale(4.12)"><rect width="6" height="6"/></g>
<g transform="translate(423,591) scale(4.12)"><rect width="6" height="6"/></g>
<g transform="translate(447,591) scale(4.12)"><rect width="6" height="6"/></g>
<g transform="translate(495,591) scale(4.12)"><rect width="6" height="6"/></g>
<g transform="translate(519,591) scale(4.12)"><rect width="6" height="6"/></g>
<g transform="translate(567,591) scale(4.12)"><rect width="6" height="6"/></g>
<g transform="translate(663,591) scale(4.12)"><rect width="6" height="6"/></g>
<g transform="translate(687,591) scale(4.12)"><rect width="6" height="6"/></g>
<g transform="translate(711,591) scale(4.12)"><rect width="6" height="6"/></g>
<g transform="translate(735,591) scale(4.12)"><rect width="6" height="6"/></g>
<g transform="translate(759,591) scale(4.12)"><rect width="6" height="6"/></g>
<g transform="translate(327,615) scale(4.12)"><rect width="6" height="6"/></g>
<g transform="translate(351,615) scale(4.12)"><rect width="6" height="6"/></g>
<g transform="translate(399,615) scale(4.12)"><rect width="6" height="6"/></g>
<g transform="translate(423,615) scale(4.12)"><rect width="6" height="6"/></g>
<g transform="translate(447,615) scale(4.12)"><rect width="6" height="6"/></g>
<g transform="translate(471,615) scale(4.12)"><rect width="6" height="6"/></g>
<g transform="translate(495,615) scale(4.12)"><rect width="6" height="6"/></g>
<g transform="translate(543,615) scale(4.12)"><rect width="6" height="6"/></g>
<g transform="translate(567,615) scale(4.12)"><rect width="6" height="6"/></g>
<g transform="translate(615,615) scale(4.12)"><rect width="6" height="6"/></g>
<g transform="translate(663,615) scale(4.12)"><rect width="6" height="6"/></g>
<g transform="translate(687,615) scale(4.12)"><rect width="6" height="6"/></g>
<g transform="translate(711,615) scale(4.12)"><rect width="6" height="6"/></g>
<g transform="translate(279,639) scale(4.12)"><rect width="6" height="6"/></g>
<g transform="translate(327,639) scale(4.12)"><rect width="6" height="6"/></g>
<g transform="translate(399,639) scale(4.12)"><rect width="6" height="6"/></g>
<g transform="translate(447,639) scale(4.12)"><rect width="6" height="6"/></g>
<g transform="translate(495,639) scale(4.12)"><rect width="6" height="6"/></g>
<g transform="translate(519,639) scale(4.12)"><rect width="6" height="6"/></g>
<g transform="translate(543,639) scale(4.12)"><rect width="6" height="6"/></g>
<g transform="translate(567,639) scale(4.12)"><rect width="6" height="6"/></g>
<g transform="translate(663,639) scale(4.12)"><rect width="6" height="6"/></g>
<g transform="translate(759,639) scale(4.12)"><rect width="6" height="6"/></g>
<g transform="translate(279,663) scale(4.12)"><rect width="6" height="6"/></g>
<g transform="translate(303,663) scale(4.12)"><rect width="6" height="6"/></g>
<g transform="translate(327,663) scale(4.12)"><rect width="6" height="6"/></g>
<g transform="translate(375,663) scale(4.12)"><rect width="6" height="6"/></g>
<g transform="translate(423,663) scale(4.12)"><rect width="6" height="6"/></g>
<g transform="translate(447,663) scale(4.12)"><rect width="6" height="6"/></g>
<g transform="translate(567,663) scale(4.12)"><rect width="6" height="6"/></g>
<g transform="translate(591,663) scale(4.12)"><rect width="6" height="6"/></g>
<g transform="translate(615,663) scale(4.12)"><rect width="6" height="6"/></g>
<g transform="translate(639,663) scale(4.12)"><rect width="6" height="6"/></g>
<g transform="translate(663,663) scale(4.12)"><rect width="6" height="6"/></g>
<g transform="translate(711,663) scale(4.12)"><rect width="6" height="6"/></g>
<g transform="translate(735,663) scale(4.12)"><rect width="6" height="6"/></g>
<g transform="translate(759,663) scale(4.12)"><rect width="6" height="6"/></g>
<g transform="translate(279,687) scale(4.12)"><rect width="6" height="6"/></g>
<g transform="translate(327,687) scale(4.12)"><rect width="6" height="6"/></g>
<g transform="translate(375,687) scale(4.12)"><rect width="6" height="6"/></g>
<g transform="translate(399,687) scale(4.12)"><rect width="6" height="6"/></g>
<g transform="translate(447,687) scale(4.12)"><rect width="6" height="6"/></g>
<g transform="translate(471,687) scale(4.12)"><rect width="6" height="6"/></g>
<g transform="translate(519,687) scale(4.12)"><rect width="6" height="6"/></g>
<g transform="translate(567,687) scale(4.12)"><rect width="6" height="6"/></g>
<g transform="translate(639,687) scale(4.12)"><rect width="6" height="6"/></g>
<g transform="translate(687,687) scale(4.12)"><rect width="6" height="6"/></g>
<g transform="translate(711,687) scale(4.12)"><rect width="6" height="6"/></g>
<g transform="translate(279,711) scale(4.12)"><rect width="6" height="6"/></g>
<g transform="translate(351,711) scale(4.12)"><rect width="6" height="6"/></g>
<g transform="translate(375,711) scale(4.12)"><rect width="6" height="6"/></g>
<g transform="translate(399,711) scale(4.12)"><rect width="6" height="6"/></g>
<g transform="translate(519,711) scale(4.12)"><rect width="6" height="6"/></g>
<g transform="translate(543,711) scale(4.12)"><rect width="6" height="6"/></g>
<g transform="translate(567,711) scale(4.12)"><rect width="6" height="6"/></g>
<g transform="translate(591,711) scale(4.12)"><rect width="6" height="6"/></g>
<g transform="translate(615,711) scale(4.12)"><rect width="6" height="6"/></g>
<g transform="translate(639,711) scale(4.12)"><rect width="6" height="6"/></g>
<g transform="translate(663,711) scale(4.12)"><rect width="6" height="6"/></g>
<g transform="translate(687,711) scale(4.12)"><rect width="6" height="6"/></g>
<g transform="translate(711,711) scale(4.12)"><rect width="6" height="6"/></g>
<g transform="translate(735,711) scale(4.12)"><rect width="6" height="6"/></g>
<g transform="translate(303,735) scale(4.12)"><rect width="6" height="6"/></g>
<g transform="translate(327,735) scale(4.12)"><rect width="6" height="6"/></g>
<g transform="translate(375,735) scale(4.12)"><rect width="6" height="6"/></g>
<g transform="translate(399,735) scale(4.12)"><rect width="6" height="6"/></g>
<g transform="translate(471,735) scale(4.12)"><rect width="6" height="6"/></g>
<g transform="translate(567,735) scale(4.12)"><rect width="6" height="6"/></g>
<g transform="translate(591,735) scale(4.12)"><rect width="6" height="6"/></g>
<g transform="translate(639,735) scale(4.12)"><rect width="6" height="6"/></g>
<g transform="translate(687,735) scale(4.12)"><rect width="6" height="6"/></g>
<g transform="translate(735,735) scale(4.12)"><rect width="6" height="6"/></g>
<g transform="translate(279,759) scale(4.12)"><rect width="6" height="6"/></g>
<g transform="translate(303,759) scale(4.12)"><rect width="6" height="6"/></g>
<g transform="translate(375,759) scale(4.12)"><rect width="6" height="6"/></g>
<g transform="translate(471,759) scale(4.12)"><rect width="6" height="6"/></g>
<g transform="translate(519,759) scale(4.12)"><rect width="6" height="6"/></g>
<g transform="translate(591,759) scale(4.12)"><rect width="6" height="6"/></g>
<g transform="translate(615,759) scale(4.12)"><rect width="6" height="6"/></g>
<g transform="translate(663,759) scale(4.12)"><rect width="6" height="6"/></g>
<g transform="translate(711,759) scale(4.12)"><rect width="6" height="6"/></g>
<g transform="translate(87,87)"><g transform="scale(12)"><path d="M0,0v14h14V0H0z M12,12H2V2h10V12z"/></g></g>
<g transform="translate(615,87)"><g transform="scale(12)"><path d="M0,0v14h14V0H0z M12,12H2V2h10V12z"/></g></g>
<g transform="translate(87,615)"><g transform="scale(12)"><path d="M0,0v14h14V0H0z M12,12H2V2h10V12z"/></g></g>
<g transform="translate(135,135)"><g transform="scale(12)"><rect width="6" height="6"/></g></g>
<g transform="translate(663,135)"><g transform="scale(12)"><rect width="6" height="6"/></g></g>
<g transform="translate(135,663)"><g transform="scale(12)"><rect width="6" height="6"/></g></g>
</g></svg>
